PathFileType	4	(X/Y/Z)	/Users/itak/Documents/Research/Walk-IL/dataset/trc/00300_00010.trc
DataRate	CameraRate	NumFrames	NumMarkers	Units	OrigDataRate	OrigDataStartFrame	OrigNumFrames
100.000000	100.000000	4	54	mm	100.000000	397	454
Frame#	Time	RPSI			LPSI			L3			STRN			T10			C7			CLAV			RBAK			LBAK			LSHO			LUPA			LAEL			LAOL			LWTS			LWPS			LFRA			LIFD			LHPS			LHTS			RSHO			RUPA			RAEL			RAOL			RWTS			RWPS			RFRA			RIFD			RHTS			RHPS			RBHD			LFHD			RFHD			LBHD			LHIP			RHIP			RASI			LASI			LKNE			LTHI			LANK			LTIP			LTOE			LMT1			LMT5			LHEE			RKNE			RTHI			RANK			RTIP			RTOE			RMT1			RMT5			RHEE			*53			
		X1	Y1	Z1	X2	Y2	Z2	X3	Y3	Z3	X4	Y4	Z4	X5	Y5	Z5	X6	Y6	Z6	X7	Y7	Z7	X8	Y8	Z8	X9	Y9	Z9	X10	Y10	Z10	X11	Y11	Z11	X12	Y12	Z12	X13	Y13	Z13	X14	Y14	Z14	X15	Y15	Z15	X16	Y16	Z16	X17	Y17	Z17	X18	Y18	Z18	X19	Y19	Z19	X20	Y20	Z20	X21	Y21	Z21	X22	Y22	Z22	X23	Y23	Z23	X24	Y24	Z24	X25	Y25	Z25	X26	Y26	Z26	X27	Y27	Z27	X28	Y28	Z28	X29	Y29	Z29	X30	Y30	Z30	X31	Y31	Z31	X32	Y32	Z32	X33	Y33	Z33	X34	Y34	Z34	X35	Y35	Z35	X36	Y36	Z36	X37	Y37	Z37	X38	Y38	Z38	X39	Y39	Z39	X40	Y40	Z40	X41	Y41	Z41	X42	Y42	Z42	X43	Y43	Z43	X44	Y44	Z44	X45	Y45	Z45	X46	Y46	Z46	X47	Y47	Z47	X48	Y48	Z48	X49	Y49	Z49	X50	Y50	Z50	X51	Y51	Z51	X52	Y52	Z52	X53	Y53	Z53	X54	Y54	Z54	

398	3.97	616.642822265625	1009.367431640625	-358.7420349121094	439.2945251464844	1002.352233886719	-355.5965576171875	526.4110717773438	1071.634033203125	-373.2683410644531	520.1771240234375	1244.35205078125	-623.240966796875	526.5841674804688	1187.387817382812	-354.0221252441406	509.8688659667969	1431.174682617188	-405.2218017578125	517.2696533203125	1345.49169921875	-561.4717407226562	585.6181640625	1294.163208007812	-350.3233337402344	403.302978515625	1395.114135742188	-390.6828002929688	353.2329406738281	1398.206298828125	-483.2333374023438	278.5387268066406	1279.223999023438	-468.3811645507812	274.7619934082031	1076.070556640625	-503.9795227050781	312.7268981933594	1058.516357421875	-426.4645080566406	373.7895812988281	865.9373779296875	-580.8975219726562	304.0695190429688	847.0957641601562	-581.19384765625	281.0274963378906	973.3889770507812	-533.663330078125	393.66064453125	684.1835327148438	-603.7074584960938	318.3016967773438	760.0352172851562	-592.6292724609375	377.5735168457031	771.449951171875	-620.137451171875	668.0449829101562	1406.091674804688	-470.9151916503906	735.8780517578125	1352.514282226562	-458.5721740722656	805.3535766601562	1096.05810546875	-417.9351806640625	714.6917724609375	1082.634033203125	-393.472900390625	794.6010131835938	855.4418334960938	-485.1806335449219	861.5206298828125	868.11962890625	-434.2054443359375	828.6473388671875	1029.522827148438	-431.3898010253906	823.4078979492188	671.1004638671875	-457.8677978515625	830.7787475585938	739.343017578125	-489.7190856933594	875.7968139648438	755.6858520507812	-437.4415588378906	580.8602905273438	1582.465454101562	-421.61865234375	456.4651184082031	1637.15869140625	-584.947998046875	549.330810546875	1637.689575195312	-586.2484130859375	434.9307861328125	1572.017578125	-422.2225341796875	342.3108825683594	952.6023559570312	-420.650634765625	714.5939331054688	951.3908081054688	-463.7937316894531	640.6982421875	950.7826538085938	-580.5857543945312	387.9465637207031	954.7235717773438	-559.809326171875	369.9311218261719	483.0117797851562	-470.2323913574219	347.9668579101562	625.5866088867188	-467.6057739257812	385.8944091796875	44.08479690551758	-394.8958129882812	368.7641906738281	260.4716796875	-424.4891052246094	444.9164123535156	35.61559295654297	-601.9412231445312	484.5462036132812	25.19243049621582	-530.7001953125	373.3337707519531	40.38028335571289	-518.875732421875	445.1888122558594	35.59408569335938	-348.5423583984375	665.6295776367188	477.3295288085938	-460.4971618652344	702.1170043945312	737.0042724609375	-507.8331604003906	627.9120483398438	35.46726608276367	-411.9826049804688	649.5511474609375	358.5776672363281	-467.6953125	548.236328125	40.17876434326172	-598.8899536132812	517.7848510742188	40.30802536010742	-536.3819580078125	633.7127685546875	26.19556999206543	-517.690185546875	586.2989501953125	35.68126678466797	-353.2733459472656	nan	nan	nan	
399	3.98	616.032958984375	1009.448364257812	-358.6688537597656	438.5986328125	1002.388916015625	-355.6849365234375	525.5896606445312	1071.624755859375	-373.3098754882812	519.6824951171875	1244.398803710938	-623.0009155273438	525.7724609375	1187.194091796875	-353.9908447265625	509.2983093261719	1431.047607421875	-404.8365173339844	516.8365478515625	1345.528564453125	-561.1812744140625	584.915283203125	1293.874389648438	-349.904052734375	402.6364135742188	1395.046752929688	-390.5386962890625	352.7353210449219	1398.270629882812	-483.1827697753906	277.7364501953125	1279.366943359375	-468.7044067382812	274.3576049804688	1076.21923828125	-504.4869995117188	311.6991271972656	1058.597778320312	-426.7503967285156	374.0841979980469	866.1919555664062	-580.7425537109375	304.3480529785156	847.2150268554688	-581.7044677734375	280.7597045898438	973.5113525390625	-534.2738037109375	394.3327331542969	684.3655395507812	-603.1033325195312	318.7590026855469	760.1433715820312	-592.9713134765625	378.3365173339844	771.5934448242188	-619.82421875	667.5052490234375	1406.015502929688	-470.1611328125	735.3927001953125	1352.663208007812	-457.5908813476562	805.2648315429688	1096.445068359375	-416.3053894042969	714.6004638671875	1082.828491210938	-392.0971069335938	794.6605224609375	856.283203125	-485.2258911132812	861.3630981445312	868.29833984375	-433.7326049804688	828.5860595703125	1029.843872070312	-429.8821716308594	823.1708984375	671.4320068359375	-460.2118225097656	830.9880981445312	740.3842163085938	-491.1800231933594	875.6236572265625	756.0009765625	-438.3706665039062	580.5369262695312	1582.425170898438	-421.3044738769531	456.7271728515625	1637.128051757812	-585.0339965820312	549.6259765625	1637.486328125	-586.1148071289062	434.4655151367188	1572.273193359375	-422.2781372070312	341.6925354003906	952.5446166992188	-420.689208984375	714.0053100585938	951.4862670898438	-463.6643676757812	640.08056640625	950.7897338867188	-580.439453125	387.3753051757812	954.6357421875	-559.8186645507812	369.8388977050781	482.9051818847656	-469.3099975585938	347.51171875	625.5504150390625	-467.0397033691406	385.854736328125	44.00554656982422	-394.8816223144531	368.6776733398438	260.4474182128906	-423.8477478027344	444.9313049316406	35.68215942382812	-601.8771362304688	484.5302429199219	25.19141387939453	-530.6764526367188	373.2852783203125	40.38630676269531	-518.8616333007812	445.1592102050781	35.4936637878418	-348.5135803222656	665.3223266601562	477.3410034179688	-460.0754089355469	701.6975708007812	736.9993286132812	-507.5287170410156	627.8779907226562	35.46714019775391	-411.9617919921875	649.4091186523438	358.6783752441406	-467.3530883789062	548.2643432617188	40.21165466308594	-598.8832397460938	517.7935791015625	40.32833480834961	-536.3809814453125	633.7207641601562	26.20049858093262	-517.6880493164062	586.2689819335938	35.65439605712891	-353.2532653808594	nan	nan	nan	
400	3.99	615.413330078125	1009.518493652344	-358.5432739257812	437.8919677734375	1002.399963378906	-355.7641906738281	524.7720947265625	1071.6123046875	-373.3152465820312	519.2247924804688	1244.453369140625	-622.74658203125	524.9671630859375	1186.99560546875	-353.914794921875	508.7359619140625	1430.926391601562	-404.4364624023438	516.4130859375	1345.557861328125	-560.8648071289062	584.2259521484375	1293.595092773438	-349.4619445800781	401.9857177734375	1394.985107421875	-390.3740844726562	352.2486267089844	1398.346069335938	-483.1172180175781	276.9953002929688	1279.518676757812	-468.9797058105469	273.9255065917969	1076.362915039062	-504.9506530761719	310.741455078125	1058.679443359375	-427.0238952636719	374.1685791015625	866.405517578125	-580.637451171875	304.3806457519531	847.3112182617188	-582.0966186523438	280.4024658203125	973.6258544921875	-534.7926025390625	394.5542907714844	684.44921875	-602.5299072265625	318.8822021484375	760.2223510742188	-593.190185546875	378.7040100097656	771.656982421875	-619.5340576171875	666.9899291992188	1405.931030273438	-469.4119873046875	734.8975830078125	1352.732055664062	-456.6668090820312	804.97607421875	1096.6396484375	-414.9355773925781	714.2849731445312	1082.880615234375	-391.0151062011719	794.4549560546875	856.9756469726562	-485.5447998046875	860.9583740234375	868.3543090820312	-433.5899047851562	828.2994384765625	1030.004028320312	-428.6692199707031	822.6689453125	671.6510620117188	-462.5994567871094	830.8753051757812	741.22705078125	-492.7615356445312	875.1806030273438	756.1712036132812	-439.5001525878906	580.2225952148438	1582.367919921875	-420.9561767578125	456.9840087890625	1637.101196289062	-585.0817260742188	549.9199829101562	1637.28125	-585.9524536132812	434.0506286621094	1572.518310546875	-422.2952575683594	341.0920715332031	952.4791870117188	-420.7554016113281	713.4257202148438	951.5717163085938	-463.4977722167969	639.4680786132812	950.785888671875	-580.2545776367188	386.8515319824219	954.5592041015625	-559.8355712890625	369.7297973632812	482.7907104492188	-468.4033203125	347.0810852050781	625.5142822265625	-466.4776306152344	385.8045959472656	43.92010879516602	-394.8705749511719	368.5818176269531	260.4281616210938	-423.2175598144531	444.9437255859375	35.75375366210938	-601.8099365234375	484.5143127441406	25.1994743347168	-530.6553344726562	373.2391357421875	40.38661575317383	-518.8406372070312	445.12548828125	35.39606094360352	-348.4827880859375	665.0543823242188	477.4161987304688	-459.7214050292969	701.318115234375	737.01025390625	-507.2076416015625	627.8422241210938	35.46706390380859	-411.9434814453125	649.2494506835938	358.7639770507812	-467.0412292480469	548.28662109375	40.23814010620117	-598.8804321289062	517.7993774414062	40.34359359741211	-536.3806762695312	633.7246704101562	26.20347023010254	-517.6859741210938	586.2240600585938	35.63717269897461	-353.2373962402344	nan	nan	nan	
401	4	614.7831420898438	1009.573364257812	-358.3703918457031	437.1896057128906	1002.386169433594	-355.8242492675781	523.9741821289062	1071.595703125	-373.2747802734375	518.8111572265625	1244.515502929688	-622.4807739257812	524.1666870117188	1186.797119140625	-353.7955322265625	508.1794128417969	1430.811767578125	-404.028076171875	516.0014038085938	1345.58203125	-560.5262451171875	583.5407104492188	1293.328369140625	-349	401.3531799316406	1394.9296875	-390.1931762695312	351.7722473144531	1398.431030273438	-483.0416870117188	276.3135681152344	1279.669921875	-469.2105712890625	273.464599609375	1076.499633789062	-505.3624267578125	309.854736328125	1058.758911132812	-427.2821044921875	374.0262451171875	866.5496215820312	-580.566650390625	304.1639099121094	847.3826293945312	-582.3740234375	279.9571228027344	973.7293090820312	-535.2158813476562	394.3277893066406	684.4306640625	-602.0007934570312	318.6680297851562	760.2658081054688	-593.2965087890625	378.6762390136719	771.638427734375	-619.2730102539062	666.4981079101562	1405.83740234375	-468.6648254394531	734.39208984375	1352.71435546875	-455.7993774414062	804.492431640625	1096.634399414062	-413.8450927734375	713.7518920898438	1082.782836914062	-390.2358093261719	793.9811401367188	857.4920654296875	-486.1122131347656	860.3115234375	868.273193359375	-433.7633361816406	827.7960205078125	1029.993896484375	-427.7656860351562	821.9052734375	671.7691040039062	-465.0197143554688	830.428466796875	741.8425903320312	-494.4472351074219	874.4598999023438	756.170166015625	-440.8047180175781	579.9142456054688	1582.291381835938	-420.5702819824219	457.2291259765625	1637.079467773438	-585.091796875	550.21044921875	1637.076538085938	-585.7614135742188	433.6984558105469	1572.752685546875	-422.2729797363281	340.5175170898438	952.4030151367188	-420.8407592773438	712.8521118164062	951.646728515625	-463.2815551757812	638.857666015625	950.7697143554688	-580.0172729492188	386.3675231933594	954.4902954101562	-559.8651123046875	369.5889282226562	482.6759338378906	-467.5114440917969	346.6812133789062	625.473388671875	-465.9200744628906	385.7456970214844	43.83203506469727	-394.8619995117188	368.4790649414062	260.4133911132812	-422.5986633300781	444.951904296875	35.82835006713867	-601.7398071289062	484.5037536621094	25.2221508026123	-530.6385498046875	373.1985168457031	40.38008499145508	-518.8117065429688	445.0875854492188	35.30117416381836	-348.4491882324219	664.8294067382812	477.5462036132812	-459.4368286132812	700.991455078125	737.0460815429688	-506.8867492675781	627.80029296875	35.46465682983398	-411.9262390136719	649.0757446289062	358.834228515625	-466.7529907226562	548.3018188476562	40.25683212280273	-598.8815307617188	517.8015747070312	40.35320663452148	-536.3815307617188	633.7233276367188	26.20489692687988	-517.6843872070312	586.1664428710938	35.62954711914062	-353.2264099121094	nan	nan	nan	
